<?xml version="1.0" encoding="utf-8" standalone="no"?>
<!DOCTYPE svg PUBLIC "-//W3C//DTD SVG 1.1//EN"
  "http://www.w3.org/Graphics/SVG/1.1/DTD/svg11.dtd">
<svg xmlns:xlink="http://www.w3.org/1999/xlink" width="639.432937pt" height="420.9775pt" viewBox="0 0 639.432937 420.9775" xmlns="http://www.w3.org/2000/svg" version="1.1">
 <metadata>
  <rdf:RDF xmlns:dc="http://purl.org/dc/elements/1.1/" xmlns:cc="http://creativecommons.org/ns#" xmlns:rdf="http://www.w3.org/1999/02/22-rdf-syntax-ns#">
   <cc:Work>
    <dc:type rdf:resource="http://purl.org/dc/dcmitype/StillImage"/>
    <dc:date>2026-03-12T17:00:29.603450</dc:date>
    <dc:format>image/svg+xml</dc:format>
    <dc:creator>
     <cc:Agent>
      <dc:title>Matplotlib v3.9.0, https://matplotlib.org/</dc:title>
     </cc:Agent>
    </dc:creator>
   </cc:Work>
  </rdf:RDF>
 </metadata>
 <defs>
  <style type="text/css">*{stroke-linejoin: round; stroke-linecap: butt}</style>
 </defs>
 <g id="figure_1">
  <g id="patch_1">
   <path d="M 0 420.9775 
L 639.432937 420.9775 
L 639.432937 0 
L 0 0 
z
" style="fill: #ffffff"/>
  </g>
  <g id="axes_1">
   <g id="patch_2">
    <path d="M 73.798281 380.517812 
L 550.428281 380.517812 
L 550.428281 23.837812 
L 73.798281 23.837812 
z
" style="fill: #ffffff"/>
   </g>
   <g id="patch_3">
    <path d="M 73.798281 380.517812 
L 312.113281 380.517812 
L 312.113281 202.177812 
L 73.798281 202.177812 
z
" clip-path="url(#pa6471555f4)" style="fill: #f7f7f7"/>
   </g>
   <g id="patch_4">
    <path d="M 312.113281 380.517812 
L 550.428281 380.517812 
L 550.428281 202.177812 
L 312.113281 202.177812 
z
" clip-path="url(#pa6471555f4)" style="fill: #f2f8ff"/>
   </g>
   <g id="patch_5">
    <path d="M 73.798281 202.177812 
L 312.113281 202.177812 
L 312.113281 23.837812 
L 73.798281 23.837812 
z
" clip-path="url(#pa6471555f4)" style="fill: #fff8f2"/>
   </g>
   <g id="patch_6">
    <path d="M 312.113281 202.177812 
L 550.428281 202.177812 
L 550.428281 23.837812 
L 312.113281 23.837812 
z
" clip-path="url(#pa6471555f4)" style="fill: #f3fbf4"/>
   </g>
   <g id="matplotlib.axis_1">
    <g id="xtick_1">
     <g id="line2d_1">
      <path d="M 73.798281 380.517812 
L 73.798281 23.837812 
" clip-path="url(#pa6471555f4)" style="fill: none; stroke: #888888; stroke-opacity: 0.2; stroke-width: 0.6; stroke-linecap: square"/>
     </g>
     <g id="line2d_2">
      <defs>
       <path id="mdb4406fe29" d="M 0 0 
L 0 3.5 
" style="stroke: #222222; stroke-width: 0.8"/>
      </defs>
      <g>
       <use xlink:href="#mdb4406fe29" x="73.798281" y="380.517812" style="fill: #222222; stroke: #222222; stroke-width: 0.8"/>
      </g>
     </g>
     <g id="text_1">
      <!-- Low -->
      <g style="fill: #222222" transform="translate(62.966719 395.876094) scale(0.11 -0.11)">
       <defs>
        <path id="DejaVuSans-4c" d="M 628 4666 
L 1259 4666 
L 1259 531 
L 3531 531 
L 3531 0 
L 628 0 
L 628 4666 
z
" transform="scale(0.015625)"/>
        <path id="DejaVuSans-6f" d="M 1959 3097 
Q 1497 3097 1228 2736 
Q 959 2375 959 1747 
Q 959 1119 1226 758 
Q 1494 397 1959 397 
Q 2419 397 2687 759 
Q 2956 1122 2956 1747 
Q 2956 2369 2687 2733 
Q 2419 3097 1959 3097 
z
M 1959 3584 
Q 2709 3584 3137 3096 
Q 3566 2609 3566 1747 
Q 3566 888 3137 398 
Q 2709 -91 1959 -91 
Q 1206 -91 779 398 
Q 353 888 353 1747 
Q 353 2609 779 3096 
Q 1206 3584 1959 3584 
z
" transform="scale(0.015625)"/>
        <path id="DejaVuSans-77" d="M 269 3500 
L 844 3500 
L 1563 769 
L 2278 3500 
L 2956 3500 
L 3675 769 
L 4391 3500 
L 4966 3500 
L 4050 0 
L 3372 0 
L 2619 2869 
L 1863 0 
L 1184 0 
L 269 3500 
z
" transform="scale(0.015625)"/>
       </defs>
       <use xlink:href="#DejaVuSans-4c"/>
       <use xlink:href="#DejaVuSans-6f" x="53.962891"/>
       <use xlink:href="#DejaVuSans-77" x="115.144531"/>
      </g>
     </g>
    </g>
    <g id="xtick_2">
     <g id="line2d_3">
      <path d="M 312.113281 380.517812 
L 312.113281 23.837812 
" clip-path="url(#pa6471555f4)" style="fill: none; stroke: #888888; stroke-opacity: 0.2; stroke-width: 0.6; stroke-linecap: square"/>
     </g>
     <g id="line2d_4">
      <g>
       <use xlink:href="#mdb4406fe29" x="312.113281" y="380.517812" style="fill: #222222; stroke: #222222; stroke-width: 0.8"/>
      </g>
     </g>
     <g id="text_2">
      <!-- Medium -->
      <g style="fill: #222222" transform="translate(290.121016 395.876094) scale(0.11 -0.11)">
       <defs>
        <path id="DejaVuSans-4d" d="M 628 4666 
L 1569 4666 
L 2759 1491 
L 3956 4666 
L 4897 4666 
L 4897 0 
L 4281 0 
L 4281 4097 
L 3078 897 
L 2444 897 
L 1241 4097 
L 1241 0 
L 628 0 
L 628 4666 
z
" transform="scale(0.015625)"/>
        <path id="DejaVuSans-65" d="M 3597 1894 
L 3597 1613 
L 953 1613 
Q 991 1019 1311 708 
Q 1631 397 2203 397 
Q 2534 397 2845 478 
Q 3156 559 3463 722 
L 3463 178 
Q 3153 47 2828 -22 
Q 2503 -91 2169 -91 
Q 1331 -91 842 396 
Q 353 884 353 1716 
Q 353 2575 817 3079 
Q 1281 3584 2069 3584 
Q 2775 3584 3186 3129 
Q 3597 2675 3597 1894 
z
M 3022 2063 
Q 3016 2534 2758 2815 
Q 2500 3097 2075 3097 
Q 1594 3097 1305 2825 
Q 1016 2553 972 2059 
L 3022 2063 
z
" transform="scale(0.015625)"/>
        <path id="DejaVuSans-64" d="M 2906 2969 
L 2906 4863 
L 3481 4863 
L 3481 0 
L 2906 0 
L 2906 525 
Q 2725 213 2448 61 
Q 2172 -91 1784 -91 
Q 1150 -91 751 415 
Q 353 922 353 1747 
Q 353 2572 751 3078 
Q 1150 3584 1784 3584 
Q 2172 3584 2448 3432 
Q 2725 3281 2906 2969 
z
M 947 1747 
Q 947 1113 1208 752 
Q 1469 391 1925 391 
Q 2381 391 2643 752 
Q 2906 1113 2906 1747 
Q 2906 2381 2643 2742 
Q 2381 3103 1925 3103 
Q 1469 3103 1208 2742 
Q 947 2381 947 1747 
z
" transform="scale(0.015625)"/>
        <path id="DejaVuSans-69" d="M 603 3500 
L 1178 3500 
L 1178 0 
L 603 0 
L 603 3500 
z
M 603 4863 
L 1178 4863 
L 1178 4134 
L 603 4134 
L 603 4863 
z
" transform="scale(0.015625)"/>
        <path id="DejaVuSans-75" d="M 544 1381 
L 544 3500 
L 1119 3500 
L 1119 1403 
Q 1119 906 1312 657 
Q 1506 409 1894 409 
Q 2359 409 2629 706 
Q 2900 1003 2900 1516 
L 2900 3500 
L 3475 3500 
L 3475 0 
L 2900 0 
L 2900 538 
Q 2691 219 2414 64 
Q 2138 -91 1772 -91 
Q 1169 -91 856 284 
Q 544 659 544 1381 
z
M 1991 3584 
L 1991 3584 
z
" transform="scale(0.015625)"/>
        <path id="DejaVuSans-6d" d="M 3328 2828 
Q 3544 3216 3844 3400 
Q 4144 3584 4550 3584 
Q 5097 3584 5394 3201 
Q 5691 2819 5691 2113 
L 5691 0 
L 5113 0 
L 5113 2094 
Q 5113 2597 4934 2840 
Q 4756 3084 4391 3084 
Q 3944 3084 3684 2787 
Q 3425 2491 3425 1978 
L 3425 0 
L 2847 0 
L 2847 2094 
Q 2847 2600 2669 2842 
Q 2491 3084 2119 3084 
Q 1678 3084 1418 2786 
Q 1159 2488 1159 1978 
L 1159 0 
L 581 0 
L 581 3500 
L 1159 3500 
L 1159 2956 
Q 1356 3278 1631 3431 
Q 1906 3584 2284 3584 
Q 2666 3584 2933 3390 
Q 3200 3197 3328 2828 
z
" transform="scale(0.015625)"/>
       </defs>
       <use xlink:href="#DejaVuSans-4d"/>
       <use xlink:href="#DejaVuSans-65" x="86.279297"/>
       <use xlink:href="#DejaVuSans-64" x="147.802734"/>
       <use xlink:href="#DejaVuSans-69" x="211.279297"/>
       <use xlink:href="#DejaVuSans-75" x="239.0625"/>
       <use xlink:href="#DejaVuSans-6d" x="302.441406"/>
      </g>
     </g>
    </g>
    <g id="xtick_3">
     <g id="line2d_5">
      <path d="M 550.428281 380.517812 
L 550.428281 23.837812 
" clip-path="url(#pa6471555f4)" style="fill: none; stroke: #888888; stroke-opacity: 0.2; stroke-width: 0.6; stroke-linecap: square"/>
     </g>
     <g id="line2d_6">
      <g>
       <use xlink:href="#mdb4406fe29" x="550.428281" y="380.517812" style="fill: #222222; stroke: #222222; stroke-width: 0.8"/>
      </g>
     </g>
     <g id="text_3">
      <!-- High -->
      <g style="fill: #222222" transform="translate(537.786875 395.876094) scale(0.11 -0.11)">
       <defs>
        <path id="DejaVuSans-48" d="M 628 4666 
L 1259 4666 
L 1259 2753 
L 3553 2753 
L 3553 4666 
L 4184 4666 
L 4184 0 
L 3553 0 
L 3553 2222 
L 1259 2222 
L 1259 0 
L 628 0 
L 628 4666 
z
" transform="scale(0.015625)"/>
        <path id="DejaVuSans-67" d="M 2906 1791 
Q 2906 2416 2648 2759 
Q 2391 3103 1925 3103 
Q 1463 3103 1205 2759 
Q 947 2416 947 1791 
Q 947 1169 1205 825 
Q 1463 481 1925 481 
Q 2391 481 2648 825 
Q 2906 1169 2906 1791 
z
M 3481 434 
Q 3481 -459 3084 -895 
Q 2688 -1331 1869 -1331 
Q 1566 -1331 1297 -1286 
Q 1028 -1241 775 -1147 
L 775 -588 
Q 1028 -725 1275 -790 
Q 1522 -856 1778 -856 
Q 2344 -856 2625 -561 
Q 2906 -266 2906 331 
L 2906 616 
Q 2728 306 2450 153 
Q 2172 0 1784 0 
Q 1141 0 747 490 
Q 353 981 353 1791 
Q 353 2603 747 3093 
Q 1141 3584 1784 3584 
Q 2172 3584 2450 3431 
Q 2728 3278 2906 2969 
L 2906 3500 
L 3481 3500 
L 3481 434 
z
" transform="scale(0.015625)"/>
        <path id="DejaVuSans-68" d="M 3513 2113 
L 3513 0 
L 2938 0 
L 2938 2094 
Q 2938 2591 2744 2837 
Q 2550 3084 2163 3084 
Q 1697 3084 1428 2787 
Q 1159 2491 1159 1978 
L 1159 0 
L 581 0 
L 581 4863 
L 1159 4863 
L 1159 2956 
Q 1366 3272 1645 3428 
Q 1925 3584 2291 3584 
Q 2894 3584 3203 3211 
Q 3513 2838 3513 2113 
z
" transform="scale(0.015625)"/>
       </defs>
       <use xlink:href="#DejaVuSans-48"/>
       <use xlink:href="#DejaVuSans-69" x="75.195312"/>
       <use xlink:href="#DejaVuSans-67" x="102.978516"/>
       <use xlink:href="#DejaVuSans-68" x="166.455078"/>
      </g>
     </g>
    </g>
    <g id="text_4">
     <!-- Tool autonomy (low → high) -->
     <g style="fill: #222222" transform="translate(229.423906 411.281875) scale(0.12 -0.12)">
      <defs>
       <path id="DejaVuSans-54" d="M -19 4666 
L 3928 4666 
L 3928 4134 
L 2272 4134 
L 2272 0 
L 1638 0 
L 1638 4134 
L -19 4134 
L -19 4666 
z
" transform="scale(0.015625)"/>
       <path id="DejaVuSans-6c" d="M 603 4863 
L 1178 4863 
L 1178 0 
L 603 0 
L 603 4863 
z
" transform="scale(0.015625)"/>
       <path id="DejaVuSans-20" transform="scale(0.015625)"/>
       <path id="DejaVuSans-61" d="M 2194 1759 
Q 1497 1759 1228 1600 
Q 959 1441 959 1056 
Q 959 750 1161 570 
Q 1363 391 1709 391 
Q 2188 391 2477 730 
Q 2766 1069 2766 1631 
L 2766 1759 
L 2194 1759 
z
M 3341 1997 
L 3341 0 
L 2766 0 
L 2766 531 
Q 2569 213 2275 61 
Q 1981 -91 1556 -91 
Q 1019 -91 701 211 
Q 384 513 384 1019 
Q 384 1609 779 1909 
Q 1175 2209 1959 2209 
L 2766 2209 
L 2766 2266 
Q 2766 2663 2505 2880 
Q 2244 3097 1772 3097 
Q 1472 3097 1187 3025 
Q 903 2953 641 2809 
L 641 3341 
Q 956 3463 1253 3523 
Q 1550 3584 1831 3584 
Q 2591 3584 2966 3190 
Q 3341 2797 3341 1997 
z
" transform="scale(0.015625)"/>
       <path id="DejaVuSans-74" d="M 1172 4494 
L 1172 3500 
L 2356 3500 
L 2356 3053 
L 1172 3053 
L 1172 1153 
Q 1172 725 1289 603 
Q 1406 481 1766 481 
L 2356 481 
L 2356 0 
L 1766 0 
Q 1100 0 847 248 
Q 594 497 594 1153 
L 594 3053 
L 172 3053 
L 172 3500 
L 594 3500 
L 594 4494 
L 1172 4494 
z
" transform="scale(0.015625)"/>
       <path id="DejaVuSans-6e" d="M 3513 2113 
L 3513 0 
L 2938 0 
L 2938 2094 
Q 2938 2591 2744 2837 
Q 2550 3084 2163 3084 
Q 1697 3084 1428 2787 
Q 1159 2491 1159 1978 
L 1159 0 
L 581 0 
L 581 3500 
L 1159 3500 
L 1159 2956 
Q 1366 3272 1645 3428 
Q 1925 3584 2291 3584 
Q 2894 3584 3203 3211 
Q 3513 2838 3513 2113 
z
" transform="scale(0.015625)"/>
       <path id="DejaVuSans-79" d="M 2059 -325 
Q 1816 -950 1584 -1140 
Q 1353 -1331 966 -1331 
L 506 -1331 
L 506 -850 
L 844 -850 
Q 1081 -850 1212 -737 
Q 1344 -625 1503 -206 
L 1606 56 
L 191 3500 
L 800 3500 
L 1894 763 
L 2988 3500 
L 3597 3500 
L 2059 -325 
z
" transform="scale(0.015625)"/>
       <path id="DejaVuSans-28" d="M 1984 4856 
Q 1566 4138 1362 3434 
Q 1159 2731 1159 2009 
Q 1159 1288 1364 580 
Q 1569 -128 1984 -844 
L 1484 -844 
Q 1016 -109 783 600 
Q 550 1309 550 2009 
Q 550 2706 781 3412 
Q 1013 4119 1484 4856 
L 1984 4856 
z
" transform="scale(0.015625)"/>
       <path id="DejaVuSans-2192" d="M 5050 2147 
L 5050 1866 
L 3822 638 
L 3447 1013 
L 4175 1741 
L 366 1741 
L 366 2272 
L 4175 2272 
L 3447 3000 
L 3822 3375 
L 5050 2147 
z
" transform="scale(0.015625)"/>
       <path id="DejaVuSans-29" d="M 513 4856 
L 1013 4856 
Q 1481 4119 1714 3412 
Q 1947 2706 1947 2009 
Q 1947 1309 1714 600 
Q 1481 -109 1013 -844 
L 513 -844 
Q 928 -128 1133 580 
Q 1338 1288 1338 2009 
Q 1338 2731 1133 3434 
Q 928 4138 513 4856 
z
" transform="scale(0.015625)"/>
      </defs>
      <use xlink:href="#DejaVuSans-54"/>
      <use xlink:href="#DejaVuSans-6f" x="44.083984"/>
      <use xlink:href="#DejaVuSans-6f" x="105.265625"/>
      <use xlink:href="#DejaVuSans-6c" x="166.447266"/>
      <use xlink:href="#DejaVuSans-20" x="194.230469"/>
      <use xlink:href="#DejaVuSans-61" x="226.017578"/>
      <use xlink:href="#DejaVuSans-75" x="287.296875"/>
      <use xlink:href="#DejaVuSans-74" x="350.675781"/>
      <use xlink:href="#DejaVuSans-6f" x="389.884766"/>
      <use xlink:href="#DejaVuSans-6e" x="451.066406"/>
      <use xlink:href="#DejaVuSans-6f" x="514.445312"/>
      <use xlink:href="#DejaVuSans-6d" x="575.626953"/>
      <use xlink:href="#DejaVuSans-79" x="673.039062"/>
      <use xlink:href="#DejaVuSans-20" x="732.21875"/>
      <use xlink:href="#DejaVuSans-28" x="764.005859"/>
      <use xlink:href="#DejaVuSans-6c" x="803.019531"/>
      <use xlink:href="#DejaVuSans-6f" x="830.802734"/>
      <use xlink:href="#DejaVuSans-77" x="891.984375"/>
      <use xlink:href="#DejaVuSans-20" x="973.771484"/>
      <use xlink:href="#DejaVuSans-2192" x="1005.558594"/>
      <use xlink:href="#DejaVuSans-20" x="1089.347656"/>
      <use xlink:href="#DejaVuSans-68" x="1121.134766"/>
      <use xlink:href="#DejaVuSans-69" x="1184.513672"/>
      <use xlink:href="#DejaVuSans-67" x="1212.296875"/>
      <use xlink:href="#DejaVuSans-68" x="1275.773438"/>
      <use xlink:href="#DejaVuSans-29" x="1339.152344"/>
     </g>
    </g>
   </g>
   <g id="matplotlib.axis_2">
    <g id="ytick_1">
     <g id="line2d_7">
      <path d="M 73.798281 380.517812 
L 550.428281 380.517812 
" clip-path="url(#pa6471555f4)" style="fill: none; stroke: #888888; stroke-opacity: 0.2; stroke-width: 0.6; stroke-linecap: square"/>
     </g>
     <g id="line2d_8">
      <defs>
       <path id="m678882d3be" d="M 0 0 
L -3.5 0 
" style="stroke: #222222; stroke-width: 0.8"/>
      </defs>
      <g>
       <use xlink:href="#m678882d3be" x="73.798281" y="380.517812" style="fill: #222222; stroke: #222222; stroke-width: 0.8"/>
      </g>
     </g>
     <g id="text_5">
      <!-- Low -->
      <g style="fill: #222222" transform="translate(45.135156 384.696953) scale(0.11 -0.11)">
       <use xlink:href="#DejaVuSans-4c"/>
       <use xlink:href="#DejaVuSans-6f" x="53.962891"/>
       <use xlink:href="#DejaVuSans-77" x="115.144531"/>
      </g>
     </g>
    </g>
    <g id="ytick_2">
     <g id="line2d_9">
      <path d="M 73.798281 202.177812 
L 550.428281 202.177812 
" clip-path="url(#pa6471555f4)" style="fill: none; stroke: #888888; stroke-opacity: 0.2; stroke-width: 0.6; stroke-linecap: square"/>
     </g>
     <g id="line2d_10">
      <g>
       <use xlink:href="#m678882d3be" x="73.798281" y="202.177812" style="fill: #222222; stroke: #222222; stroke-width: 0.8"/>
      </g>
     </g>
     <g id="text_6">
      <!-- Medium -->
      <g style="fill: #222222" transform="translate(22.81375 206.356953) scale(0.11 -0.11)">
       <use xlink:href="#DejaVuSans-4d"/>
       <use xlink:href="#DejaVuSans-65" x="86.279297"/>
       <use xlink:href="#DejaVuSans-64" x="147.802734"/>
       <use xlink:href="#DejaVuSans-69" x="211.279297"/>
       <use xlink:href="#DejaVuSans-75" x="239.0625"/>
       <use xlink:href="#DejaVuSans-6d" x="302.441406"/>
      </g>
     </g>
    </g>
    <g id="ytick_3">
     <g id="line2d_11">
      <path d="M 73.798281 23.837812 
L 550.428281 23.837812 
" clip-path="url(#pa6471555f4)" style="fill: none; stroke: #888888; stroke-opacity: 0.2; stroke-width: 0.6; stroke-linecap: square"/>
     </g>
     <g id="line2d_12">
      <g>
       <use xlink:href="#m678882d3be" x="73.798281" y="23.837812" style="fill: #222222; stroke: #222222; stroke-width: 0.8"/>
      </g>
     </g>
     <g id="text_7">
      <!-- High -->
      <g style="fill: #222222" transform="translate(41.515469 28.016953) scale(0.11 -0.11)">
       <use xlink:href="#DejaVuSans-48"/>
       <use xlink:href="#DejaVuSans-69" x="75.195312"/>
       <use xlink:href="#DejaVuSans-67" x="102.978516"/>
       <use xlink:href="#DejaVuSans-68" x="166.455078"/>
      </g>
     </g>
    </g>
    <g id="text_8">
     <!-- Process structure autonomy (low → high) -->
     <g style="fill: #222222" transform="translate(16.318125 325.101875) rotate(-90) scale(0.12 -0.12)">
      <defs>
       <path id="DejaVuSans-50" d="M 1259 4147 
L 1259 2394 
L 2053 2394 
Q 2494 2394 2734 2622 
Q 2975 2850 2975 3272 
Q 2975 3691 2734 3919 
Q 2494 4147 2053 4147 
L 1259 4147 
z
M 628 4666 
L 2053 4666 
Q 2838 4666 3239 4311 
Q 3641 3956 3641 3272 
Q 3641 2581 3239 2228 
Q 2838 1875 2053 1875 
L 1259 1875 
L 1259 0 
L 628 0 
L 628 4666 
z
" transform="scale(0.015625)"/>
       <path id="DejaVuSans-72" d="M 2631 2963 
Q 2534 3019 2420 3045 
Q 2306 3072 2169 3072 
Q 1681 3072 1420 2755 
Q 1159 2438 1159 1844 
L 1159 0 
L 581 0 
L 581 3500 
L 1159 3500 
L 1159 2956 
Q 1341 3275 1631 3429 
Q 1922 3584 2338 3584 
Q 2397 3584 2469 3576 
Q 2541 3569 2628 3553 
L 2631 2963 
z
" transform="scale(0.015625)"/>
       <path id="DejaVuSans-63" d="M 3122 3366 
L 3122 2828 
Q 2878 2963 2633 3030 
Q 2388 3097 2138 3097 
Q 1578 3097 1268 2742 
Q 959 2388 959 1747 
Q 959 1106 1268 751 
Q 1578 397 2138 397 
Q 2388 397 2633 464 
Q 2878 531 3122 666 
L 3122 134 
Q 2881 22 2623 -34 
Q 2366 -91 2075 -91 
Q 1284 -91 818 406 
Q 353 903 353 1747 
Q 353 2603 823 3093 
Q 1294 3584 2113 3584 
Q 2378 3584 2631 3529 
Q 2884 3475 3122 3366 
z
" transform="scale(0.015625)"/>
       <path id="DejaVuSans-73" d="M 2834 3397 
L 2834 2853 
Q 2591 2978 2328 3040 
Q 2066 3103 1784 3103 
Q 1356 3103 1142 2972 
Q 928 2841 928 2578 
Q 928 2378 1081 2264 
Q 1234 2150 1697 2047 
L 1894 2003 
Q 2506 1872 2764 1633 
Q 3022 1394 3022 966 
Q 3022 478 2636 193 
Q 2250 -91 1575 -91 
Q 1294 -91 989 -36 
Q 684 19 347 128 
L 347 722 
Q 666 556 975 473 
Q 1284 391 1588 391 
Q 1994 391 2212 530 
Q 2431 669 2431 922 
Q 2431 1156 2273 1281 
Q 2116 1406 1581 1522 
L 1381 1569 
Q 847 1681 609 1914 
Q 372 2147 372 2553 
Q 372 3047 722 3315 
Q 1072 3584 1716 3584 
Q 2034 3584 2315 3537 
Q 2597 3491 2834 3397 
z
" transform="scale(0.015625)"/>
      </defs>
      <use xlink:href="#DejaVuSans-50"/>
      <use xlink:href="#DejaVuSans-72" x="58.552734"/>
      <use xlink:href="#DejaVuSans-6f" x="97.416016"/>
      <use xlink:href="#DejaVuSans-63" x="158.597656"/>
      <use xlink:href="#DejaVuSans-65" x="213.578125"/>
      <use xlink:href="#DejaVuSans-73" x="275.101562"/>
      <use xlink:href="#DejaVuSans-73" x="327.201172"/>
      <use xlink:href="#DejaVuSans-20" x="379.300781"/>
      <use xlink:href="#DejaVuSans-73" x="411.087891"/>
      <use xlink:href="#DejaVuSans-74" x="463.1875"/>
      <use xlink:href="#DejaVuSans-72" x="502.396484"/>
      <use xlink:href="#DejaVuSans-75" x="543.509766"/>
      <use xlink:href="#DejaVuSans-63" x="606.888672"/>
      <use xlink:href="#DejaVuSans-74" x="661.869141"/>
      <use xlink:href="#DejaVuSans-75" x="701.078125"/>
      <use xlink:href="#DejaVuSans-72" x="764.457031"/>
      <use xlink:href="#DejaVuSans-65" x="803.320312"/>
      <use xlink:href="#DejaVuSans-20" x="864.84375"/>
      <use xlink:href="#DejaVuSans-61" x="896.630859"/>
      <use xlink:href="#DejaVuSans-75" x="957.910156"/>
      <use xlink:href="#DejaVuSans-74" x="1021.289062"/>
      <use xlink:href="#DejaVuSans-6f" x="1060.498047"/>
      <use xlink:href="#DejaVuSans-6e" x="1121.679688"/>
      <use xlink:href="#DejaVuSans-6f" x="1185.058594"/>
      <use xlink:href="#DejaVuSans-6d" x="1246.240234"/>
      <use xlink:href="#DejaVuSans-79" x="1343.652344"/>
      <use xlink:href="#DejaVuSans-20" x="1402.832031"/>
      <use xlink:href="#DejaVuSans-28" x="1434.619141"/>
      <use xlink:href="#DejaVuSans-6c" x="1473.632812"/>
      <use xlink:href="#DejaVuSans-6f" x="1501.416016"/>
      <use xlink:href="#DejaVuSans-77" x="1562.597656"/>
      <use xlink:href="#DejaVuSans-20" x="1644.384766"/>
      <use xlink:href="#DejaVuSans-2192" x="1676.171875"/>
      <use xlink:href="#DejaVuSans-20" x="1759.960938"/>
      <use xlink:href="#DejaVuSans-68" x="1791.748047"/>
      <use xlink:href="#DejaVuSans-69" x="1855.126953"/>
      <use xlink:href="#DejaVuSans-67" x="1882.910156"/>
      <use xlink:href="#DejaVuSans-68" x="1946.386719"/>
      <use xlink:href="#DejaVuSans-29" x="2009.765625"/>
     </g>
    </g>
   </g>
   <g id="line2d_13">
    <path d="M 312.113281 380.517812 
L 312.113281 23.837812 
" clip-path="url(#pa6471555f4)" style="fill: none; stroke: #bdbdbd; stroke-linecap: square"/>
   </g>
   <g id="line2d_14">
    <path d="M 73.798281 202.177812 
L 550.428281 202.177812 
" clip-path="url(#pa6471555f4)" style="fill: none; stroke: #bdbdbd; stroke-linecap: square"/>
   </g>
   <g id="patch_7">
    <path d="M 73.798281 380.517812 
L 73.798281 23.837812 
" style="fill: none; stroke: #666666; stroke-width: 0.9; stroke-linejoin: miter; stroke-linecap: square"/>
   </g>
   <g id="patch_8">
    <path d="M 550.428281 380.517812 
L 550.428281 23.837812 
" style="fill: none; stroke: #666666; stroke-width: 0.9; stroke-linejoin: miter; stroke-linecap: square"/>
   </g>
   <g id="patch_9">
    <path d="M 73.798281 380.517812 
L 550.428281 380.517812 
" style="fill: none; stroke: #666666; stroke-width: 0.9; stroke-linejoin: miter; stroke-linecap: square"/>
   </g>
   <g id="patch_10">
    <path d="M 73.798281 23.837812 
L 550.428281 23.837812 
" style="fill: none; stroke: #666666; stroke-width: 0.9; stroke-linejoin: miter; stroke-linecap: square"/>
   </g>
   <g id="PathCollection_1">
    <defs>
     <path id="m20b1fa776e" d="M 0 5.700877 
C 1.51189 5.700877 2.962061 5.100197 4.031129 4.031129 
C 5.100197 2.962061 5.700877 1.51189 5.700877 0 
C 5.700877 -1.51189 5.100197 -2.962061 4.031129 -4.031129 
C 2.962061 -5.100197 1.51189 -5.700877 0 -5.700877 
C -1.51189 -5.700877 -2.962061 -5.100197 -4.031129 -4.031129 
C -5.100197 -2.962061 -5.700877 -1.51189 -5.700877 0 
C -5.700877 1.51189 -5.100197 2.962061 -4.031129 4.031129 
C -2.962061 5.100197 -1.51189 5.700877 0 5.700877 
z
" style="stroke: #000000; stroke-width: 0.6"/>
    </defs>
    <g clip-path="url(#pa6471555f4)">
     <use xlink:href="#m20b1fa776e" x="502.765281" y="309.181812" style="fill: #0072b2; stroke: #000000; stroke-width: 0.6"/>
    </g>
   </g>
   <g id="text_9">
    <g id="patch_11">
     <path d="M 510.765281 305.303531 
L 632.232938 305.303531 
Q 634.482938 305.303531 634.482938 303.053531 
L 634.482938 284.265187 
Q 634.482938 282.015187 632.232938 282.015187 
L 510.765281 282.015187 
Q 508.515281 282.015187 508.515281 284.265187 
L 508.515281 303.053531 
Q 508.515281 305.303531 510.765281 305.303531 
z
" style="fill: #ffffff; opacity: 0.9; stroke: #cccccc; stroke-linejoin: miter"/>
    </g>
    <!-- Tightly controlled workflow -->
    <g style="fill: #222222" transform="translate(510.765281 291.103781) scale(0.09 -0.09)">
     <defs>
      <path id="DejaVuSans-6b" d="M 581 4863 
L 1159 4863 
L 1159 1991 
L 2875 3500 
L 3609 3500 
L 1753 1863 
L 3688 0 
L 2938 0 
L 1159 1709 
L 1159 0 
L 581 0 
L 581 4863 
z
" transform="scale(0.015625)"/>
      <path id="DejaVuSans-66" d="M 2375 4863 
L 2375 4384 
L 1825 4384 
Q 1516 4384 1395 4259 
Q 1275 4134 1275 3809 
L 1275 3500 
L 2222 3500 
L 2222 3053 
L 1275 3053 
L 1275 0 
L 697 0 
L 697 3053 
L 147 3053 
L 147 3500 
L 697 3500 
L 697 3744 
Q 697 4328 969 4595 
Q 1241 4863 1831 4863 
L 2375 4863 
z
" transform="scale(0.015625)"/>
     </defs>
     <use xlink:href="#DejaVuSans-54"/>
     <use xlink:href="#DejaVuSans-69" x="57.958984"/>
     <use xlink:href="#DejaVuSans-67" x="85.742188"/>
     <use xlink:href="#DejaVuSans-68" x="149.21875"/>
     <use xlink:href="#DejaVuSans-74" x="212.597656"/>
     <use xlink:href="#DejaVuSans-6c" x="251.806641"/>
     <use xlink:href="#DejaVuSans-79" x="279.589844"/>
     <use xlink:href="#DejaVuSans-20" x="338.769531"/>
     <use xlink:href="#DejaVuSans-63" x="370.556641"/>
     <use xlink:href="#DejaVuSans-6f" x="425.537109"/>
     <use xlink:href="#DejaVuSans-6e" x="486.71875"/>
     <use xlink:href="#DejaVuSans-74" x="550.097656"/>
     <use xlink:href="#DejaVuSans-72" x="589.306641"/>
     <use xlink:href="#DejaVuSans-6f" x="628.169922"/>
     <use xlink:href="#DejaVuSans-6c" x="689.351562"/>
     <use xlink:href="#DejaVuSans-6c" x="717.134766"/>
     <use xlink:href="#DejaVuSans-65" x="744.917969"/>
     <use xlink:href="#DejaVuSans-64" x="806.441406"/>
     <use xlink:href="#DejaVuSans-20" x="869.917969"/>
     <use xlink:href="#DejaVuSans-77" x="901.705078"/>
     <use xlink:href="#DejaVuSans-6f" x="983.492188"/>
     <use xlink:href="#DejaVuSans-72" x="1044.673828"/>
     <use xlink:href="#DejaVuSans-6b" x="1085.787109"/>
     <use xlink:href="#DejaVuSans-66" x="1143.697266"/>
     <use xlink:href="#DejaVuSans-6c" x="1178.902344"/>
     <use xlink:href="#DejaVuSans-6f" x="1206.685547"/>
     <use xlink:href="#DejaVuSans-77" x="1267.867188"/>
    </g>
    <!-- (high tool freedom) -->
    <g style="fill: #222222" transform="translate(510.765281 301.181812) scale(0.09 -0.09)">
     <use xlink:href="#DejaVuSans-28"/>
     <use xlink:href="#DejaVuSans-68" x="39.013672"/>
     <use xlink:href="#DejaVuSans-69" x="102.392578"/>
     <use xlink:href="#DejaVuSans-67" x="130.175781"/>
     <use xlink:href="#DejaVuSans-68" x="193.652344"/>
     <use xlink:href="#DejaVuSans-20" x="257.03125"/>
     <use xlink:href="#DejaVuSans-74" x="288.818359"/>
     <use xlink:href="#DejaVuSans-6f" x="328.027344"/>
     <use xlink:href="#DejaVuSans-6f" x="389.208984"/>
     <use xlink:href="#DejaVuSans-6c" x="450.390625"/>
     <use xlink:href="#DejaVuSans-20" x="478.173828"/>
     <use xlink:href="#DejaVuSans-66" x="509.960938"/>
     <use xlink:href="#DejaVuSans-72" x="545.166016"/>
     <use xlink:href="#DejaVuSans-65" x="584.029297"/>
     <use xlink:href="#DejaVuSans-65" x="645.552734"/>
     <use xlink:href="#DejaVuSans-64" x="707.076172"/>
     <use xlink:href="#DejaVuSans-6f" x="770.552734"/>
     <use xlink:href="#DejaVuSans-6d" x="831.734375"/>
     <use xlink:href="#DejaVuSans-29" x="929.146484"/>
    </g>
   </g>
   <g id="PathCollection_2">
    <defs>
     <path id="maa049c4093" d="M 0 5.700877 
C 1.51189 5.700877 2.962061 5.100197 4.031129 4.031129 
C 5.100197 2.962061 5.700877 1.51189 5.700877 0 
C 5.700877 -1.51189 5.100197 -2.962061 4.031129 -4.031129 
C 2.962061 -5.100197 1.51189 -5.700877 0 -5.700877 
C -1.51189 -5.700877 -2.962061 -5.100197 -4.031129 -4.031129 
C -5.100197 -2.962061 -5.700877 -1.51189 -5.700877 0 
C -5.700877 1.51189 -5.100197 2.962061 -4.031129 4.031129 
C -2.962061 5.100197 -1.51189 5.700877 0 5.700877 
z
" style="stroke: #000000; stroke-width: 0.6"/>
    </defs>
    <g clip-path="url(#pa6471555f4)">
     <use xlink:href="#maa049c4093" x="502.765281" y="59.505812" style="fill: #009e73; stroke: #000000; stroke-width: 0.6"/>
    </g>
   </g>
   <g id="text_10">
    <g id="patch_12">
     <path d="M 510.765281 55.627531 
L 625.865438 55.627531 
Q 628.115438 55.627531 628.115438 53.377531 
L 628.115438 44.667219 
Q 628.115438 42.417219 625.865438 42.417219 
L 510.765281 42.417219 
Q 508.515281 42.417219 508.515281 44.667219 
L 508.515281 53.377531 
Q 508.515281 55.627531 510.765281 55.627531 
z
" style="fill: #ffffff; opacity: 0.9; stroke: #cccccc; stroke-linejoin: miter"/>
    </g>
    <!-- Fully autonomous system -->
    <g style="fill: #222222" transform="translate(510.765281 51.505812) scale(0.09 -0.09)">
     <defs>
      <path id="DejaVuSans-46" d="M 628 4666 
L 3309 4666 
L 3309 4134 
L 1259 4134 
L 1259 2759 
L 3109 2759 
L 3109 2228 
L 1259 2228 
L 1259 0 
L 628 0 
L 628 4666 
z
" transform="scale(0.015625)"/>
     </defs>
     <use xlink:href="#DejaVuSans-46"/>
     <use xlink:href="#DejaVuSans-75" x="52.019531"/>
     <use xlink:href="#DejaVuSans-6c" x="115.398438"/>
     <use xlink:href="#DejaVuSans-6c" x="143.181641"/>
     <use xlink:href="#DejaVuSans-79" x="170.964844"/>
     <use xlink:href="#DejaVuSans-20" x="230.144531"/>
     <use xlink:href="#DejaVuSans-61" x="261.931641"/>
     <use xlink:href="#DejaVuSans-75" x="323.210938"/>
     <use xlink:href="#DejaVuSans-74" x="386.589844"/>
     <use xlink:href="#DejaVuSans-6f" x="425.798828"/>
     <use xlink:href="#DejaVuSans-6e" x="486.980469"/>
     <use xlink:href="#DejaVuSans-6f" x="550.359375"/>
     <use xlink:href="#DejaVuSans-6d" x="611.541016"/>
     <use xlink:href="#DejaVuSans-6f" x="708.953125"/>
     <use xlink:href="#DejaVuSans-75" x="770.134766"/>
     <use xlink:href="#DejaVuSans-73" x="833.513672"/>
     <use xlink:href="#DejaVuSans-20" x="885.613281"/>
     <use xlink:href="#DejaVuSans-73" x="917.400391"/>
     <use xlink:href="#DejaVuSans-79" x="969.5"/>
     <use xlink:href="#DejaVuSans-73" x="1028.679688"/>
     <use xlink:href="#DejaVuSans-74" x="1080.779297"/>
     <use xlink:href="#DejaVuSans-65" x="1119.988281"/>
     <use xlink:href="#DejaVuSans-6d" x="1181.511719"/>
    </g>
   </g>
   <g id="PathCollection_3">
    <defs>
     <path id="m2a63b72b05" d="M 0 5.700877 
C 1.51189 5.700877 2.962061 5.100197 4.031129 4.031129 
C 5.100197 2.962061 5.700877 1.51189 5.700877 0 
C 5.700877 -1.51189 5.100197 -2.962061 4.031129 -4.031129 
C 2.962061 -5.100197 1.51189 -5.700877 0 -5.700877 
C -1.51189 -5.700877 -2.962061 -5.100197 -4.031129 -4.031129 
C -5.100197 -2.962061 -5.700877 -1.51189 -5.700877 0 
C -5.700877 1.51189 -5.100197 2.962061 -4.031129 4.031129 
C -2.962061 5.100197 -1.51189 5.700877 0 5.700877 
z
" style="stroke: #000000; stroke-width: 0.6"/>
    </defs>
    <g clip-path="url(#pa6471555f4)">
     <use xlink:href="#m2a63b72b05" x="169.124281" y="95.173812" style="fill: #d55e00; stroke: #000000; stroke-width: 0.6"/>
    </g>
   </g>
   <g id="text_11">
    <g id="patch_13">
     <path d="M 177.124281 91.295531 
L 281.147406 91.295531 
Q 283.397406 91.295531 283.397406 89.045531 
L 283.397406 60.179156 
Q 283.397406 57.929156 281.147406 57.929156 
L 177.124281 57.929156 
Q 174.874281 57.929156 174.874281 60.179156 
L 174.874281 89.045531 
Q 174.874281 91.295531 177.124281 91.295531 
z
" style="fill: #ffffff; opacity: 0.9; stroke: #cccccc; stroke-linejoin: miter"/>
    </g>
    <!-- Standard chatbot -->
    <g style="fill: #222222" transform="translate(177.124281 67.01775) scale(0.09 -0.09)">
     <defs>
      <path id="DejaVuSans-53" d="M 3425 4513 
L 3425 3897 
Q 3066 4069 2747 4153 
Q 2428 4238 2131 4238 
Q 1616 4238 1336 4038 
Q 1056 3838 1056 3469 
Q 1056 3159 1242 3001 
Q 1428 2844 1947 2747 
L 2328 2669 
Q 3034 2534 3370 2195 
Q 3706 1856 3706 1288 
Q 3706 609 3251 259 
Q 2797 -91 1919 -91 
Q 1588 -91 1214 -16 
Q 841 59 441 206 
L 441 856 
Q 825 641 1194 531 
Q 1563 422 1919 422 
Q 2459 422 2753 634 
Q 3047 847 3047 1241 
Q 3047 1584 2836 1778 
Q 2625 1972 2144 2069 
L 1759 2144 
Q 1053 2284 737 2584 
Q 422 2884 422 3419 
Q 422 4038 858 4394 
Q 1294 4750 2059 4750 
Q 2388 4750 2728 4690 
Q 3069 4631 3425 4513 
z
" transform="scale(0.015625)"/>
      <path id="DejaVuSans-62" d="M 3116 1747 
Q 3116 2381 2855 2742 
Q 2594 3103 2138 3103 
Q 1681 3103 1420 2742 
Q 1159 2381 1159 1747 
Q 1159 1113 1420 752 
Q 1681 391 2138 391 
Q 2594 391 2855 752 
Q 3116 1113 3116 1747 
z
M 1159 2969 
Q 1341 3281 1617 3432 
Q 1894 3584 2278 3584 
Q 2916 3584 3314 3078 
Q 3713 2572 3713 1747 
Q 3713 922 3314 415 
Q 2916 -91 2278 -91 
Q 1894 -91 1617 61 
Q 1341 213 1159 525 
L 1159 0 
L 581 0 
L 581 4863 
L 1159 4863 
L 1159 2969 
z
" transform="scale(0.015625)"/>
     </defs>
     <use xlink:href="#DejaVuSans-53"/>
     <use xlink:href="#DejaVuSans-74" x="63.476562"/>
     <use xlink:href="#DejaVuSans-61" x="102.685547"/>
     <use xlink:href="#DejaVuSans-6e" x="163.964844"/>
     <use xlink:href="#DejaVuSans-64" x="227.34375"/>
     <use xlink:href="#DejaVuSans-61" x="290.820312"/>
     <use xlink:href="#DejaVuSans-72" x="352.099609"/>
     <use xlink:href="#DejaVuSans-64" x="391.462891"/>
     <use xlink:href="#DejaVuSans-20" x="454.939453"/>
     <use xlink:href="#DejaVuSans-63" x="486.726562"/>
     <use xlink:href="#DejaVuSans-68" x="541.707031"/>
     <use xlink:href="#DejaVuSans-61" x="605.085938"/>
     <use xlink:href="#DejaVuSans-74" x="666.365234"/>
     <use xlink:href="#DejaVuSans-62" x="705.574219"/>
     <use xlink:href="#DejaVuSans-6f" x="769.050781"/>
     <use xlink:href="#DejaVuSans-74" x="830.232422"/>
    </g>
    <!-- (high process freedom, -->
    <g style="fill: #222222" transform="translate(177.124281 77.095781) scale(0.09 -0.09)">
     <defs>
      <path id="DejaVuSans-70" d="M 1159 525 
L 1159 -1331 
L 581 -1331 
L 581 3500 
L 1159 3500 
L 1159 2969 
Q 1341 3281 1617 3432 
Q 1894 3584 2278 3584 
Q 2916 3584 3314 3078 
Q 3713 2572 3713 1747 
Q 3713 922 3314 415 
Q 2916 -91 2278 -91 
Q 1894 -91 1617 61 
Q 1341 213 1159 525 
z
M 3116 1747 
Q 3116 2381 2855 2742 
Q 2594 3103 2138 3103 
Q 1681 3103 1420 2742 
Q 1159 2381 1159 1747 
Q 1159 1113 1420 752 
Q 1681 391 2138 391 
Q 2594 391 2855 752 
Q 3116 1113 3116 1747 
z
" transform="scale(0.015625)"/>
      <path id="DejaVuSans-2c" d="M 750 794 
L 1409 794 
L 1409 256 
L 897 -744 
L 494 -744 
L 750 256 
L 750 794 
z
" transform="scale(0.015625)"/>
     </defs>
     <use xlink:href="#DejaVuSans-28"/>
     <use xlink:href="#DejaVuSans-68" x="39.013672"/>
     <use xlink:href="#DejaVuSans-69" x="102.392578"/>
     <use xlink:href="#DejaVuSans-67" x="130.175781"/>
     <use xlink:href="#DejaVuSans-68" x="193.652344"/>
     <use xlink:href="#DejaVuSans-20" x="257.03125"/>
     <use xlink:href="#DejaVuSans-70" x="288.818359"/>
     <use xlink:href="#DejaVuSans-72" x="352.294922"/>
     <use xlink:href="#DejaVuSans-6f" x="391.158203"/>
     <use xlink:href="#DejaVuSans-63" x="452.339844"/>
     <use xlink:href="#DejaVuSans-65" x="507.320312"/>
     <use xlink:href="#DejaVuSans-73" x="568.84375"/>
     <use xlink:href="#DejaVuSans-73" x="620.943359"/>
     <use xlink:href="#DejaVuSans-20" x="673.042969"/>
     <use xlink:href="#DejaVuSans-66" x="704.830078"/>
     <use xlink:href="#DejaVuSans-72" x="740.035156"/>
     <use xlink:href="#DejaVuSans-65" x="778.898438"/>
     <use xlink:href="#DejaVuSans-65" x="840.421875"/>
     <use xlink:href="#DejaVuSans-64" x="901.945312"/>
     <use xlink:href="#DejaVuSans-6f" x="965.421875"/>
     <use xlink:href="#DejaVuSans-6d" x="1026.603516"/>
     <use xlink:href="#DejaVuSans-2c" x="1124.015625"/>
    </g>
    <!-- limited tools) -->
    <g style="fill: #222222" transform="translate(177.124281 87.173812) scale(0.09 -0.09)">
     <use xlink:href="#DejaVuSans-6c"/>
     <use xlink:href="#DejaVuSans-69" x="27.783203"/>
     <use xlink:href="#DejaVuSans-6d" x="55.566406"/>
     <use xlink:href="#DejaVuSans-69" x="152.978516"/>
     <use xlink:href="#DejaVuSans-74" x="180.761719"/>
     <use xlink:href="#DejaVuSans-65" x="219.970703"/>
     <use xlink:href="#DejaVuSans-64" x="281.494141"/>
     <use xlink:href="#DejaVuSans-20" x="344.970703"/>
     <use xlink:href="#DejaVuSans-74" x="376.757812"/>
     <use xlink:href="#DejaVuSans-6f" x="415.966797"/>
     <use xlink:href="#DejaVuSans-6f" x="477.148438"/>
     <use xlink:href="#DejaVuSans-6c" x="538.330078"/>
     <use xlink:href="#DejaVuSans-73" x="566.113281"/>
     <use xlink:href="#DejaVuSans-29" x="618.212891"/>
    </g>
   </g>
   <g id="text_12">
    <!-- Agentic AI Design Space -->
    <g style="fill: #111111" transform="translate(226.57 17.837812) scale(0.14 -0.14)">
     <defs>
      <path id="DejaVuSans-41" d="M 2188 4044 
L 1331 1722 
L 3047 1722 
L 2188 4044 
z
M 1831 4666 
L 2547 4666 
L 4325 0 
L 3669 0 
L 3244 1197 
L 1141 1197 
L 716 0 
L 50 0 
L 1831 4666 
z
" transform="scale(0.015625)"/>
      <path id="DejaVuSans-49" d="M 628 4666 
L 1259 4666 
L 1259 0 
L 628 0 
L 628 4666 
z
" transform="scale(0.015625)"/>
      <path id="DejaVuSans-44" d="M 1259 4147 
L 1259 519 
L 2022 519 
Q 2988 519 3436 956 
Q 3884 1394 3884 2338 
Q 3884 3275 3436 3711 
Q 2988 4147 2022 4147 
L 1259 4147 
z
M 628 4666 
L 1925 4666 
Q 3281 4666 3915 4102 
Q 4550 3538 4550 2338 
Q 4550 1131 3912 565 
Q 3275 0 1925 0 
L 628 0 
L 628 4666 
z
" transform="scale(0.015625)"/>
     </defs>
     <use xlink:href="#DejaVuSans-41"/>
     <use xlink:href="#DejaVuSans-67" x="68.408203"/>
     <use xlink:href="#DejaVuSans-65" x="131.884766"/>
     <use xlink:href="#DejaVuSans-6e" x="193.408203"/>
     <use xlink:href="#DejaVuSans-74" x="256.787109"/>
     <use xlink:href="#DejaVuSans-69" x="295.996094"/>
     <use xlink:href="#DejaVuSans-63" x="323.779297"/>
     <use xlink:href="#DejaVuSans-20" x="378.759766"/>
     <use xlink:href="#DejaVuSans-41" x="410.546875"/>
     <use xlink:href="#DejaVuSans-49" x="478.955078"/>
     <use xlink:href="#DejaVuSans-20" x="508.447266"/>
     <use xlink:href="#DejaVuSans-44" x="540.234375"/>
     <use xlink:href="#DejaVuSans-65" x="617.236328"/>
     <use xlink:href="#DejaVuSans-73" x="678.759766"/>
     <use xlink:href="#DejaVuSans-69" x="730.859375"/>
     <use xlink:href="#DejaVuSans-67" x="758.642578"/>
     <use xlink:href="#DejaVuSans-6e" x="822.119141"/>
     <use xlink:href="#DejaVuSans-20" x="885.498047"/>
     <use xlink:href="#DejaVuSans-53" x="917.285156"/>
     <use xlink:href="#DejaVuSans-70" x="980.761719"/>
     <use xlink:href="#DejaVuSans-61" x="1044.238281"/>
     <use xlink:href="#DejaVuSans-63" x="1105.517578"/>
     <use xlink:href="#DejaVuSans-65" x="1160.498047"/>
    </g>
   </g>
   <g id="legend_1">
    <g id="patch_14">
     <path d="M 80.798281 375.517812 
L 247.762344 375.517812 
Q 249.762344 375.517812 249.762344 373.517812 
L 249.762344 281.244062 
Q 249.762344 279.244062 247.762344 279.244062 
L 80.798281 279.244062 
Q 78.798281 279.244062 78.798281 281.244062 
L 78.798281 373.517812 
Q 78.798281 375.517812 80.798281 375.517812 
z
" style="fill: #ffffff; opacity: 0.95; stroke: #cccccc; stroke-linejoin: miter"/>
    </g>
    <g id="text_13">
     <!-- Example systems -->
     <g style="fill: #222222" transform="translate(115.921563 291.602344) scale(0.11 -0.11)">
      <defs>
       <path id="DejaVuSans-45" d="M 628 4666 
L 3578 4666 
L 3578 4134 
L 1259 4134 
L 1259 2753 
L 3481 2753 
L 3481 2222 
L 1259 2222 
L 1259 531 
L 3634 531 
L 3634 0 
L 628 0 
L 628 4666 
z
" transform="scale(0.015625)"/>
       <path id="DejaVuSans-78" d="M 3513 3500 
L 2247 1797 
L 3578 0 
L 2900 0 
L 1881 1375 
L 863 0 
L 184 0 
L 1544 1831 
L 300 3500 
L 978 3500 
L 1906 2253 
L 2834 3500 
L 3513 3500 
z
" transform="scale(0.015625)"/>
      </defs>
      <use xlink:href="#DejaVuSans-45"/>
      <use xlink:href="#DejaVuSans-78" x="63.183594"/>
      <use xlink:href="#DejaVuSans-61" x="122.363281"/>
      <use xlink:href="#DejaVuSans-6d" x="183.642578"/>
      <use xlink:href="#DejaVuSans-70" x="281.054688"/>
      <use xlink:href="#DejaVuSans-6c" x="344.53125"/>
      <use xlink:href="#DejaVuSans-65" x="372.314453"/>
      <use xlink:href="#DejaVuSans-20" x="433.837891"/>
      <use xlink:href="#DejaVuSans-73" x="465.625"/>
      <use xlink:href="#DejaVuSans-79" x="517.724609"/>
      <use xlink:href="#DejaVuSans-73" x="576.904297"/>
      <use xlink:href="#DejaVuSans-74" x="629.003906"/>
      <use xlink:href="#DejaVuSans-65" x="668.212891"/>
      <use xlink:href="#DejaVuSans-6d" x="729.736328"/>
      <use xlink:href="#DejaVuSans-73" x="827.148438"/>
     </g>
    </g>
    <g id="PathCollection_4">
     <g>
      <use xlink:href="#m20b1fa776e" x="92.798281" y="310.502187" style="fill: #0072b2; stroke: #000000; stroke-width: 0.6"/>
     </g>
    </g>
    <g id="text_14">
     <!-- Tightly controlled workflow -->
     <g style="fill: #222222" transform="translate(110.798281 306.488437) scale(0.1 -0.1)">
      <use xlink:href="#DejaVuSans-54"/>
      <use xlink:href="#DejaVuSans-69" x="57.958984"/>
      <use xlink:href="#DejaVuSans-67" x="85.742188"/>
      <use xlink:href="#DejaVuSans-68" x="149.21875"/>
      <use xlink:href="#DejaVuSans-74" x="212.597656"/>
      <use xlink:href="#DejaVuSans-6c" x="251.806641"/>
      <use xlink:href="#DejaVuSans-79" x="279.589844"/>
      <use xlink:href="#DejaVuSans-20" x="338.769531"/>
      <use xlink:href="#DejaVuSans-63" x="370.556641"/>
      <use xlink:href="#DejaVuSans-6f" x="425.537109"/>
      <use xlink:href="#DejaVuSans-6e" x="486.71875"/>
      <use xlink:href="#DejaVuSans-74" x="550.097656"/>
      <use xlink:href="#DejaVuSans-72" x="589.306641"/>
      <use xlink:href="#DejaVuSans-6f" x="628.169922"/>
      <use xlink:href="#DejaVuSans-6c" x="689.351562"/>
      <use xlink:href="#DejaVuSans-6c" x="717.134766"/>
      <use xlink:href="#DejaVuSans-65" x="744.917969"/>
      <use xlink:href="#DejaVuSans-64" x="806.441406"/>
      <use xlink:href="#DejaVuSans-20" x="869.917969"/>
      <use xlink:href="#DejaVuSans-77" x="901.705078"/>
      <use xlink:href="#DejaVuSans-6f" x="983.492188"/>
      <use xlink:href="#DejaVuSans-72" x="1044.673828"/>
      <use xlink:href="#DejaVuSans-6b" x="1085.787109"/>
      <use xlink:href="#DejaVuSans-66" x="1143.697266"/>
      <use xlink:href="#DejaVuSans-6c" x="1178.902344"/>
      <use xlink:href="#DejaVuSans-6f" x="1206.685547"/>
      <use xlink:href="#DejaVuSans-77" x="1267.867188"/>
     </g>
     <!-- (high tool freedom) -->
     <g style="fill: #222222" transform="translate(110.798281 317.68625) scale(0.1 -0.1)">
      <use xlink:href="#DejaVuSans-28"/>
      <use xlink:href="#DejaVuSans-68" x="39.013672"/>
      <use xlink:href="#DejaVuSans-69" x="102.392578"/>
      <use xlink:href="#DejaVuSans-67" x="130.175781"/>
      <use xlink:href="#DejaVuSans-68" x="193.652344"/>
      <use xlink:href="#DejaVuSans-20" x="257.03125"/>
      <use xlink:href="#DejaVuSans-74" x="288.818359"/>
      <use xlink:href="#DejaVuSans-6f" x="328.027344"/>
      <use xlink:href="#DejaVuSans-6f" x="389.208984"/>
      <use xlink:href="#DejaVuSans-6c" x="450.390625"/>
      <use xlink:href="#DejaVuSans-20" x="478.173828"/>
      <use xlink:href="#DejaVuSans-66" x="509.960938"/>
      <use xlink:href="#DejaVuSans-72" x="545.166016"/>
      <use xlink:href="#DejaVuSans-65" x="584.029297"/>
      <use xlink:href="#DejaVuSans-65" x="645.552734"/>
      <use xlink:href="#DejaVuSans-64" x="707.076172"/>
      <use xlink:href="#DejaVuSans-6f" x="770.552734"/>
      <use xlink:href="#DejaVuSans-6d" x="831.734375"/>
      <use xlink:href="#DejaVuSans-29" x="929.146484"/>
     </g>
    </g>
    <g id="PathCollection_5">
     <g>
      <use xlink:href="#maa049c4093" x="92.798281" y="329.739375" style="fill: #009e73; stroke: #000000; stroke-width: 0.6"/>
     </g>
    </g>
    <g id="text_15">
     <!-- Fully autonomous system -->
     <g style="fill: #222222" transform="translate(110.798281 332.364375) scale(0.1 -0.1)">
      <use xlink:href="#DejaVuSans-46"/>
      <use xlink:href="#DejaVuSans-75" x="52.019531"/>
      <use xlink:href="#DejaVuSans-6c" x="115.398438"/>
      <use xlink:href="#DejaVuSans-6c" x="143.181641"/>
      <use xlink:href="#DejaVuSans-79" x="170.964844"/>
      <use xlink:href="#DejaVuSans-20" x="230.144531"/>
      <use xlink:href="#DejaVuSans-61" x="261.931641"/>
      <use xlink:href="#DejaVuSans-75" x="323.210938"/>
      <use xlink:href="#DejaVuSans-74" x="386.589844"/>
      <use xlink:href="#DejaVuSans-6f" x="425.798828"/>
      <use xlink:href="#DejaVuSans-6e" x="486.980469"/>
      <use xlink:href="#DejaVuSans-6f" x="550.359375"/>
      <use xlink:href="#DejaVuSans-6d" x="611.541016"/>
      <use xlink:href="#DejaVuSans-6f" x="708.953125"/>
      <use xlink:href="#DejaVuSans-75" x="770.134766"/>
      <use xlink:href="#DejaVuSans-73" x="833.513672"/>
      <use xlink:href="#DejaVuSans-20" x="885.613281"/>
      <use xlink:href="#DejaVuSans-73" x="917.400391"/>
      <use xlink:href="#DejaVuSans-79" x="969.5"/>
      <use xlink:href="#DejaVuSans-73" x="1028.679688"/>
      <use xlink:href="#DejaVuSans-74" x="1080.779297"/>
      <use xlink:href="#DejaVuSans-65" x="1119.988281"/>
      <use xlink:href="#DejaVuSans-6d" x="1181.511719"/>
     </g>
    </g>
    <g id="PathCollection_6">
     <g>
      <use xlink:href="#m2a63b72b05" x="92.798281" y="356.655156" style="fill: #d55e00; stroke: #000000; stroke-width: 0.6"/>
     </g>
    </g>
    <g id="text_16">
     <!-- Standard chatbot -->
     <g style="fill: #222222" transform="translate(110.798281 347.0425) scale(0.1 -0.1)">
      <use xlink:href="#DejaVuSans-53"/>
      <use xlink:href="#DejaVuSans-74" x="63.476562"/>
      <use xlink:href="#DejaVuSans-61" x="102.685547"/>
      <use xlink:href="#DejaVuSans-6e" x="163.964844"/>
      <use xlink:href="#DejaVuSans-64" x="227.34375"/>
      <use xlink:href="#DejaVuSans-61" x="290.820312"/>
      <use xlink:href="#DejaVuSans-72" x="352.099609"/>
      <use xlink:href="#DejaVuSans-64" x="391.462891"/>
      <use xlink:href="#DejaVuSans-20" x="454.939453"/>
      <use xlink:href="#DejaVuSans-63" x="486.726562"/>
      <use xlink:href="#DejaVuSans-68" x="541.707031"/>
      <use xlink:href="#DejaVuSans-61" x="605.085938"/>
      <use xlink:href="#DejaVuSans-74" x="666.365234"/>
      <use xlink:href="#DejaVuSans-62" x="705.574219"/>
      <use xlink:href="#DejaVuSans-6f" x="769.050781"/>
      <use xlink:href="#DejaVuSans-74" x="830.232422"/>
     </g>
     <!-- (high process freedom, -->
     <g style="fill: #222222" transform="translate(110.798281 358.240312) scale(0.1 -0.1)">
      <use xlink:href="#DejaVuSans-28"/>
      <use xlink:href="#DejaVuSans-68" x="39.013672"/>
      <use xlink:href="#DejaVuSans-69" x="102.392578"/>
      <use xlink:href="#DejaVuSans-67" x="130.175781"/>
      <use xlink:href="#DejaVuSans-68" x="193.652344"/>
      <use xlink:href="#DejaVuSans-20" x="257.03125"/>
      <use xlink:href="#DejaVuSans-70" x="288.818359"/>
      <use xlink:href="#DejaVuSans-72" x="352.294922"/>
      <use xlink:href="#DejaVuSans-6f" x="391.158203"/>
      <use xlink:href="#DejaVuSans-63" x="452.339844"/>
      <use xlink:href="#DejaVuSans-65" x="507.320312"/>
      <use xlink:href="#DejaVuSans-73" x="568.84375"/>
      <use xlink:href="#DejaVuSans-73" x="620.943359"/>
      <use xlink:href="#DejaVuSans-20" x="673.042969"/>
      <use xlink:href="#DejaVuSans-66" x="704.830078"/>
      <use xlink:href="#DejaVuSans-72" x="740.035156"/>
      <use xlink:href="#DejaVuSans-65" x="778.898438"/>
      <use xlink:href="#DejaVuSans-65" x="840.421875"/>
      <use xlink:href="#DejaVuSans-64" x="901.945312"/>
      <use xlink:href="#DejaVuSans-6f" x="965.421875"/>
      <use xlink:href="#DejaVuSans-6d" x="1026.603516"/>
      <use xlink:href="#DejaVuSans-2c" x="1124.015625"/>
     </g>
     <!-- limited tools) -->
     <g style="fill: #222222" transform="translate(110.798281 369.438125) scale(0.1 -0.1)">
      <use xlink:href="#DejaVuSans-6c"/>
      <use xlink:href="#DejaVuSans-69" x="27.783203"/>
      <use xlink:href="#DejaVuSans-6d" x="55.566406"/>
      <use xlink:href="#DejaVuSans-69" x="152.978516"/>
      <use xlink:href="#DejaVuSans-74" x="180.761719"/>
      <use xlink:href="#DejaVuSans-65" x="219.970703"/>
      <use xlink:href="#DejaVuSans-64" x="281.494141"/>
      <use xlink:href="#DejaVuSans-20" x="344.970703"/>
      <use xlink:href="#DejaVuSans-74" x="376.757812"/>
      <use xlink:href="#DejaVuSans-6f" x="415.966797"/>
      <use xlink:href="#DejaVuSans-6f" x="477.148438"/>
      <use xlink:href="#DejaVuSans-6c" x="538.330078"/>
      <use xlink:href="#DejaVuSans-73" x="566.113281"/>
      <use xlink:href="#DejaVuSans-29" x="618.212891"/>
     </g>
    </g>
   </g>
  </g>
 </g>
 <defs>
  <clipPath id="pa6471555f4">
   <rect x="73.798281" y="23.837812" width="476.63" height="356.68"/>
  </clipPath>
 </defs>
</svg>
